<?xml version="1.0" encoding="utf-8"?>
<!-- Generator: Adobe Illustrator 15.0.0, SVG Export Plug-In . SVG Version: 6.00 Build 0)  -->
<!DOCTYPE svg PUBLIC "-//W3C//DTD SVG 1.1//EN" "http://www.w3.org/Graphics/SVG/1.1/DTD/svg11.dtd">
<svg version="1.1" id="Livello_1" xmlns="http://www.w3.org/2000/svg" xmlns:xlink="http://www.w3.org/1999/xlink" x="0px" y="0px"
	 width="200px" height="200px" viewBox="0 0 200 200" enable-background="new 0 0 200 200" xml:space="preserve">
<g>
	<path fill="#424242" d="M166.515,76.229c0-38.455-31.174-69.629-69.629-69.629c-38.456,0-69.629,31.174-69.629,69.629
		c0,38.456,31.174,69.629,69.629,69.629C135.34,145.858,166.515,114.685,166.515,76.229"/>
	<path fill="#FF9900" d="M80.329,69.933h8.808l4.403-0.422c0.282,1.468,0.424,2.751,0.424,3.853c0,1.101-0.368,1.652-1.101,1.652
		H75.841c-0.734,0-1.384-0.296-1.948-0.889c-0.565-0.593-0.847-1.976-0.847-4.15c0-2.173,0.479-4.743,1.439-7.707
		c0.959-2.964,2.118-5.702,3.473-8.214c1.355-2.512,2.71-5.067,4.065-7.665c3.273-6.153,4.912-12.28,4.912-18.377
		c0-2.314-1.186-3.472-3.557-3.472c-1.13,0-2.004,0.296-2.625,0.889c-0.622,0.593-0.932,1.426-0.932,2.498v3.98l0.254,4.32
		c-0.734,0.169-1.482,0.254-2.244,0.254c-0.762,0-1.512-0.112-2.245-0.338c-1.411-0.395-2.117-1.102-2.117-2.117V27.08
		c0-2.426,0.875-4.361,2.625-5.801c1.75-1.44,4.121-2.159,7.114-2.159c6.774,0,10.163,2.484,10.163,7.453
		c0,7.283-1.524,14.002-4.573,20.155c-1.299,2.541-2.598,4.969-3.896,7.284C81.854,59.715,80.329,65.021,80.329,69.933"/>
	<path fill="#FF9900" d="M98.536,67.223V28.097c0-2.822,0.875-5.024,2.625-6.605c1.75-1.58,4.121-2.371,7.114-2.371
		c2.992,0,5.32,0.734,6.986,2.202c1.665,1.469,2.499,3.614,2.499,6.437v39.125c0,2.824-0.89,5.026-2.668,6.606
		c-1.779,1.579-4.165,2.371-7.156,2.371c-2.993,0-5.308-0.734-6.944-2.202C99.354,72.192,98.536,70.047,98.536,67.223
		 M104.888,27.758v39.464c0,0.961,0.31,1.766,0.932,2.414c0.621,0.649,1.397,0.974,2.329,0.974s1.707-0.325,2.329-0.974
		c0.621-0.648,0.932-1.453,0.932-2.414V27.758c0-0.96-0.311-1.764-0.932-2.414c-0.622-0.648-1.397-0.974-2.329-0.974
		s-1.708,0.326-2.329,0.974C105.198,25.994,104.888,26.798,104.888,27.758"/>
	<path fill="#FFFFFF" d="M104.14,103.693L104.14,103.693L90.988,90.541c-0.595-0.595-1.418-0.963-2.327-0.963
		c-1.816,0-3.29,1.471-3.29,3.284c0,0.907,0.37,1.658,0.964,2.253l0,0c0,0.001,0,0,0,0l7.54,7.472H76.234l0,0
		c-1.816,0-3.29,1.55-3.29,3.364c0,1.813,1.473,3.214,3.29,3.214h17.654l-7.485,7.621c0,0,0,0,0,0l0,0
		c-0.646,0.646-0.964,1.476-0.964,2.383c0,1.814,1.439,3.289,3.256,3.289c0.908,0,1.714-0.503,2.31-1.097l13.14-13.292h0l0,0
		c0.594-0.594,0.963-1.21,0.963-2.117C105.108,105.043,104.738,104.288,104.14,103.693"/>
	<path fill="#FFFFFF" d="M117.535,82.988c-0.003-1.812-1.475-3.278-3.29-3.278s-3.285,1.466-3.289,3.278h-0.001v46.783v0.006
		c0,1.814,1.473,3.284,3.29,3.284c1.817,0,3.29-1.47,3.29-3.284c0-0.002,0-0.003,0-0.006l0,0V82.988L117.535,82.988z"/>
	<path fill="#424242" d="M34.403,186.418c-0.773,0-1.443-0.127-2.011-0.38c-0.568-0.254-1.039-0.598-1.413-1.033
		c-0.375-0.435-0.659-0.942-0.852-1.522c-0.194-0.58-0.29-1.196-0.29-1.849V170.69h-2.247v-1.957h2.247v-5.616h2.609v5.616h3.805
		v1.957h-3.805v10.871c0,0.822,0.193,1.462,0.579,1.921c0.387,0.459,1.003,0.689,1.849,0.689h1.377v2.247H34.403z"/>
	<polygon fill="#424242" points="57.812,186.418 55.385,186.418 50.709,172.575 46.072,186.418 43.644,186.418 37.992,168.589 
		40.817,168.589 44.912,182.902 49.586,168.589 51.834,168.589 56.544,182.902 60.603,168.589 63.429,168.589 	"/>
	<path fill="#424242" d="M66.44,178.191c0,1.957,0.447,3.473,1.34,4.548c0.893,1.075,2.198,1.612,3.914,1.612
		c1.039,0,1.903-0.163,2.591-0.489c0.688-0.327,1.382-0.839,2.083-1.541l1.775,1.558c-0.459,0.459-0.912,0.857-1.358,1.196
		c-0.448,0.338-0.924,0.622-1.431,0.851c-0.508,0.23-1.069,0.405-1.686,0.525c-0.616,0.121-1.299,0.182-2.047,0.182
		c-1.185,0-2.253-0.182-3.208-0.543c-0.955-0.362-1.77-0.918-2.446-1.667c-0.676-0.748-1.203-1.697-1.577-2.844
		c-0.374-1.147-0.562-2.507-0.562-4.077c0-2.899,0.652-5.146,1.958-6.741c1.304-1.594,3.091-2.391,5.363-2.391
		c2.318,0,4.119,0.773,5.399,2.319c1.28,1.546,1.92,3.648,1.92,6.305v1.196H66.44z M75.789,175.293
		c-0.023-0.266-0.054-0.507-0.09-0.725c-0.037-0.217-0.085-0.429-0.145-0.634c-0.062-0.205-0.14-0.428-0.236-0.67
		c-0.339-0.821-0.882-1.473-1.631-1.956c-0.749-0.483-1.594-0.726-2.536-0.726s-1.789,0.242-2.537,0.726
		c-0.75,0.483-1.292,1.135-1.631,1.956c-0.193,0.483-0.325,0.919-0.398,1.304c-0.073,0.386-0.121,0.942-0.145,1.667h9.422
		C75.837,175.873,75.812,175.559,75.789,175.293"/>
	<path fill="#424242" d="M92.19,186.418v-10.981c0-1.594-0.393-2.784-1.178-3.568c-0.785-0.785-1.854-1.178-3.207-1.178
		s-2.428,0.399-3.225,1.196c-0.798,0.797-1.197,1.981-1.197,3.551v10.981h-2.609v-17.829h2.609v1.957
		c0.628-0.726,1.365-1.269,2.211-1.632c0.845-0.362,1.776-0.543,2.79-0.543c1.933,0,3.455,0.556,4.566,1.667
		c1.232,1.208,1.849,2.862,1.849,4.964v11.415H92.19z"/>
	<path fill="#424242" d="M104.042,186.418c-0.773,0-1.444-0.127-2.011-0.38c-0.568-0.254-1.039-0.598-1.413-1.033
		c-0.375-0.435-0.659-0.942-0.851-1.522c-0.194-0.58-0.291-1.196-0.291-1.849V170.69h-2.247v-1.957h2.247v-5.616h2.608v5.616h3.806
		v1.957h-3.806v10.871c0,0.822,0.194,1.462,0.58,1.921c0.386,0.459,1.003,0.689,1.849,0.689h1.377v2.247H104.042z"/>
	<path fill="#424242" d="M115.293,190.73c-0.339,0.942-0.761,1.642-1.269,2.101c-0.483,0.459-1.027,0.779-1.631,0.961
		c-0.604,0.181-1.22,0.271-1.848,0.271h-1.123v-2.32h0.796c0.894,0,1.535-0.163,1.921-0.489c0.386-0.327,0.726-0.9,1.015-1.722
		l1.269-3.479l-6.415-17.465h2.827l4.892,14.313l4.856-14.313h2.826L115.293,190.73z"/>
	<path fill="#424242" d="M131.87,186.418c-0.773,0-1.444-0.127-2.011-0.38c-0.568-0.254-1.039-0.598-1.413-1.033
		c-0.375-0.435-0.658-0.942-0.851-1.522c-0.194-0.58-0.291-1.196-0.291-1.849V170.69h-2.247v-1.957h2.247v-5.616h2.609v5.616h3.805
		v1.957h-3.805v10.871c0,0.822,0.193,1.462,0.58,1.921c0.386,0.459,1.002,0.689,1.849,0.689h1.376v2.247H131.87z"/>
	<path fill="#424242" d="M147.381,186.418v-1.704c-0.725,0.726-1.468,1.227-2.229,1.504c-0.761,0.277-1.733,0.417-2.917,0.417
		c-1.232,0-2.241-0.127-3.025-0.381c-0.786-0.254-1.456-0.671-2.011-1.25c-0.436-0.435-0.768-0.972-0.997-1.612
		s-0.344-1.311-0.344-2.012c0-1.57,0.526-2.82,1.577-3.75c1.05-0.93,2.578-1.395,4.583-1.395h5.363v-1.704
		c0-1.305-0.351-2.284-1.052-2.936c-0.7-0.652-1.872-0.978-3.515-0.978c-1.16,0-2.065,0.15-2.717,0.452
		c-0.653,0.303-1.245,0.829-1.776,1.577l-1.775-1.631c0.797-1.039,1.685-1.739,2.664-2.103c0.979-0.362,2.192-0.543,3.642-0.543
		c2.416,0,4.209,0.502,5.38,1.503c1.172,1.003,1.758,2.483,1.758,4.439v12.104H147.381z M147.381,178.191h-5.001
		c-2.657,0-3.986,1.051-3.986,3.153c0,1.039,0.326,1.806,0.979,2.301c0.652,0.495,1.69,0.743,3.116,0.743
		c0.772,0,1.492-0.06,2.156-0.181c0.664-0.121,1.274-0.459,1.83-1.015c0.604-0.58,0.906-1.606,0.906-3.08V178.191z"/>
	<path fill="#424242" d="M167.246,177.503c0,0.701-0.031,1.401-0.09,2.102c-0.061,0.701-0.169,1.383-0.326,2.047
		c-0.158,0.665-0.375,1.287-0.653,1.867c-0.278,0.58-0.647,1.1-1.105,1.558c-0.484,0.482-1.1,0.864-1.849,1.141
		c-0.749,0.277-1.582,0.417-2.5,0.417c-0.991,0-1.897-0.157-2.718-0.471c-0.822-0.314-1.594-0.942-2.32-1.885v2.139h-2.609v-25.801
		h2.609v10.037c0.726-0.917,1.498-1.526,2.32-1.83c0.821-0.301,1.727-0.453,2.718-0.453c0.917,0,1.75,0.139,2.5,0.417
		c0.749,0.278,1.365,0.659,1.849,1.142c0.458,0.459,0.827,0.979,1.105,1.559c0.277,0.58,0.495,1.202,0.653,1.866
		c0.156,0.665,0.265,1.347,0.326,2.047C167.215,176.103,167.246,176.803,167.246,177.503 M164.637,177.503
		c0-0.87-0.049-1.715-0.145-2.537c-0.097-0.821-0.302-1.545-0.616-2.174c-0.314-0.628-0.768-1.135-1.359-1.522
		c-0.593-0.386-1.372-0.58-2.338-0.58s-1.746,0.194-2.337,0.58c-0.591,0.387-1.044,0.894-1.358,1.522
		c-0.314,0.629-0.525,1.353-0.634,2.174c-0.108,0.822-0.163,1.667-0.163,2.537s0.055,1.715,0.163,2.536
		c0.109,0.822,0.32,1.546,0.634,2.174c0.314,0.628,0.767,1.136,1.358,1.522c0.592,0.387,1.371,0.579,2.337,0.579
		s1.745-0.192,2.338-0.579c0.591-0.387,1.044-0.894,1.359-1.522c0.313-0.628,0.519-1.352,0.616-2.174
		C164.588,179.219,164.637,178.373,164.637,177.503"/>
</g>
</svg>
