# This file uses centimeters as units for non-parametric coordinates.

mtllib proiettile_stellettaninja.mtl
g default
v -199.889476 -3.080914 17.503221
v -201.317740 -3.080914 15.122404
v -198.543446 -3.080914 15.183702
v -201.026219 -3.178533 14.128334
v -198.948411 -3.178533 14.128334
v -201.080667 -3.178533 13.484379
v -199.002825 -3.178533 13.484379
v -201.325542 -3.178533 12.876705
v -201.588563 -3.301996 12.396005
v -199.002825 -3.178533 12.876705
v -199.475450 -3.301996 12.141737
v -198.203500 -3.178533 13.482595
v -197.637346 -3.178533 13.569059
v -198.392747 -3.178533 12.939625
v -197.486442 -3.178533 13.267288
v -196.277514 -3.301996 14.162267
v -198.581915 -3.301996 12.344999
v -197.669475 -3.301996 12.724758
v -200.769629 -3.080914 16.239721
v -199.987315 -3.080914 14.784513
v -199.127939 -3.080914 16.136862
v -200.809368 -3.301996 12.171167
v -200.164178 -3.178533 12.876705
v -200.142710 -3.178533 13.484379
v -200.085959 -3.178533 14.128334
v -198.354744 -3.178533 16.678422
v -198.944464 -3.178533 17.651174
v -198.365597 -3.178533 17.938475
v -197.774651 -3.178533 16.963728
v -197.845952 -3.178533 18.253504
v -197.243892 -3.178533 17.260409
v -196.972445 -3.301996 18.230372
v -196.306093 -3.301996 17.074446
v -198.778466 -3.178533 18.622934
v -198.216043 -3.178533 18.742580
v -199.145892 -3.178533 19.062242
v -198.966069 -3.178533 19.347721
v -200.358132 -3.301996 19.917539
v -197.609492 -3.301996 18.889090
v -198.407252 -3.301996 19.472469
v -196.641821 -3.178533 16.267294
v -196.094402 -3.301996 16.291567
v -197.288417 -3.178533 16.161672
v -197.867296 -3.178533 15.874383
v -201.449942 -3.178533 16.937669
v -202.021812 -3.178533 15.954315
v -202.551119 -3.178533 16.325079
v -201.978081 -3.178533 17.310459
v -203.076423 -3.178533 16.630568
v -202.492611 -3.178533 17.634493
v -203.474175 -3.301996 17.408606
v -202.778155 -3.301996 18.546915
v -202.954507 -3.178533 15.634992
v -203.328727 -3.178533 16.071558
v -203.164373 -3.178533 15.102113
v -203.501087 -3.178533 15.123374
v -203.335180 -3.301996 13.628397
v -203.747675 -3.301996 16.534002
v -203.878073 -3.301996 15.554328
v -201.908776 -3.178533 18.638433
v -202.192063 -3.301996 19.107470
v -201.506567 -3.178533 18.121260
v -200.977260 -3.178533 17.750475
v -200.769629 -3.576271 16.239721
v -199.987315 -3.576271 14.784513
v -201.317740 -3.576271 15.122404
v -200.085959 -3.478651 14.128334
v -198.543446 -3.576271 15.183702
v -198.948411 -3.478651 14.128334
v -199.002825 -3.478651 13.484379
v -200.142710 -3.478651 13.484379
v -199.002825 -3.478651 12.876705
v -200.164178 -3.478651 12.876705
v -199.475450 -3.355189 12.141737
v -200.809368 -3.355189 12.171167
v -198.203500 -3.478651 13.482595
v -198.392747 -3.478651 12.939625
v -197.637346 -3.478651 13.569059
v -197.486442 -3.478651 13.267288
v -196.277514 -3.355189 14.162267
v -198.581915 -3.355189 12.344999
v -197.669475 -3.355189 12.724758
v -199.127939 -3.576271 16.136862
v -199.889476 -3.576271 17.503221
v -201.325542 -3.478651 12.876705
v -201.588563 -3.355189 12.396005
v -201.080667 -3.478651 13.484379
v -201.026219 -3.478651 14.128334
v -198.354744 -3.478651 16.678422
v -198.944464 -3.478651 17.651174
v -198.365597 -3.478651 17.938475
v -197.774651 -3.478651 16.963728
v -197.845952 -3.478651 18.253504
v -197.243892 -3.478651 17.260409
v -196.972445 -3.355189 18.230372
v -196.306093 -3.355189 17.074446
v -198.778466 -3.478651 18.622934
v -198.216043 -3.478651 18.742580
v -199.145892 -3.478651 19.062242
v -198.966069 -3.478651 19.347721
v -200.358132 -3.355189 19.917539
v -197.609492 -3.355189 18.889090
v -198.407252 -3.355189 19.472469
v -196.641821 -3.478651 16.267294
v -196.094402 -3.355189 16.291567
v -197.288417 -3.478651 16.161672
v -197.867296 -3.478651 15.874383
v -201.449942 -3.478651 16.937669
v -202.021812 -3.478651 15.954315
v -202.551119 -3.478651 16.325079
v -201.978081 -3.478651 17.310459
v -203.076423 -3.478651 16.630568
v -202.492611 -3.478651 17.634493
v -203.474175 -3.355189 17.408606
v -202.778155 -3.355189 18.546915
v -202.954507 -3.478651 15.634992
v -203.328727 -3.478651 16.071558
v -203.164373 -3.478651 15.102113
v -203.501087 -3.478651 15.123374
v -203.335180 -3.355189 13.628397
v -203.747675 -3.355189 16.534002
v -203.878073 -3.355189 15.554328
v -201.908776 -3.478651 18.638433
v -202.192063 -3.355189 19.107470
v -201.506567 -3.478651 18.121260
v -200.977260 -3.478651 17.750475
vt 0.150511 0.293493
vt 0.180862 0.349949
vt 0.129247 0.336840
vt 0.177035 0.375406
vt 0.236879 0.334462
vt 0.221167 0.375406
vt 0.219056 0.400389
vt 0.174833 0.400389
vt 0.219056 0.423965
vt 0.174001 0.423965
vt 0.200720 0.452479
vt 0.148970 0.451337
vt 0.250067 0.400459
vt 0.242725 0.421524
vt 0.272032 0.397104
vt 0.277887 0.408812
vt 0.324788 0.374090
vt 0.235386 0.444593
vt 0.270786 0.429860
vt 0.214203 0.297483
vt 0.184658 0.244474
vt 0.128944 0.423965
vt 0.118739 0.442614
vt 0.138444 0.400389
vt 0.140557 0.375406
vt 0.244200 0.276473
vt 0.221321 0.238734
vt 0.243779 0.227587
vt 0.266705 0.265404
vt 0.263939 0.215365
vt 0.287297 0.253894
vt 0.297827 0.216263
vt 0.323679 0.261108
vt 0.227761 0.201033
vt 0.249581 0.196391
vt 0.213506 0.183990
vt 0.220483 0.172914
vt 0.166476 0.150807
vt 0.273113 0.190707
vt 0.242163 0.168074
vt 0.310654 0.292423
vt 0.331892 0.291481
vt 0.285569 0.296521
vt 0.263110 0.307666
vt 0.124118 0.266415
vt 0.101931 0.304565
vt 0.081396 0.290181
vt 0.103628 0.251952
vt 0.061017 0.278329
vt 0.083666 0.239381
vt 0.045585 0.248144
vt 0.072588 0.203982
vt 0.065747 0.316954
vt 0.051228 0.300017
vt 0.057604 0.337627
vt 0.044541 0.336803
vt 0.050978 0.394802
vt 0.034975 0.282076
vt 0.029915 0.320083
vt 0.106317 0.200432
vt 0.095326 0.182235
vt 0.121921 0.220496
vt 0.142456 0.234881
vt 0.150511 0.293493
vt 0.129247 0.336840
vt 0.180862 0.349949
vt 0.177035 0.375406
vt 0.221167 0.375406
vt 0.236879 0.334462
vt 0.174833 0.400389
vt 0.219056 0.400389
vt 0.174001 0.423965
vt 0.219056 0.423965
vt 0.148970 0.451337
vt 0.200720 0.452479
vt 0.242725 0.421524
vt 0.250067 0.400459
vt 0.277887 0.408812
vt 0.272032 0.397104
vt 0.324788 0.374090
vt 0.235386 0.444593
vt 0.270786 0.429860
vt 0.214203 0.297483
vt 0.184658 0.244474
vt 0.128944 0.423965
vt 0.118739 0.442614
vt 0.138444 0.400389
vt 0.140557 0.375406
vt 0.244200 0.276473
vt 0.221321 0.238734
vt 0.266705 0.265404
vt 0.243779 0.227587
vt 0.287297 0.253894
vt 0.263939 0.215365
vt 0.323679 0.261108
vt 0.297827 0.216263
vt 0.249581 0.196391
vt 0.227761 0.201033
vt 0.220483 0.172914
vt 0.213506 0.183990
vt 0.166476 0.150807
vt 0.273113 0.190707
vt 0.242163 0.168074
vt 0.310654 0.292423
vt 0.331892 0.291481
vt 0.285569 0.296521
vt 0.263110 0.307666
vt 0.124118 0.266415
vt 0.101931 0.304565
vt 0.103628 0.251952
vt 0.081396 0.290181
vt 0.083666 0.239381
vt 0.061017 0.278329
vt 0.072588 0.203982
vt 0.045585 0.248144
vt 0.051228 0.300017
vt 0.065747 0.316954
vt 0.044541 0.336803
vt 0.057604 0.337627
vt 0.050978 0.394802
vt 0.034975 0.282076
vt 0.029915 0.320083
vt 0.106317 0.200432
vt 0.095326 0.182235
vt 0.121921 0.220496
vt 0.142456 0.234881
vn 0.000000 1.000000 0.000000
vn 0.012306 0.996499 0.082697
vn 0.008164 0.998460 0.054867
vn -0.010184 0.997777 0.065858
vn -0.014345 0.995585 0.092764
vn -0.008996 0.998266 0.058173
vn -0.012009 0.996907 0.077661
vn 0.000000 1.000000 0.000000
vn 0.000000 1.000000 0.000000
vn -0.009600 0.994978 0.099630
vn 0.001315 0.993763 0.111506
vn -0.003926 0.984993 0.172551
vn 0.001975 0.985877 0.167461
vn 0.000000 1.000000 -0.000000
vn -0.043874 0.989848 0.135193
vn -0.029526 0.999455 -0.014766
vn -0.153017 0.974845 0.162061
vn -0.196149 0.971798 0.130901
vn -0.052675 0.975901 0.211761
vn -0.119655 0.961016 0.249260
vn 0.000000 1.000000 0.000000
vn 0.000000 1.000000 0.000000
vn 0.000000 1.000000 0.000000
vn 0.000000 1.000000 0.000000
vn 0.000000 1.000000 0.000000
vn 0.000000 1.000000 0.000000
vn 0.000000 1.000000 0.000000
vn 0.013853 0.992730 0.119563
vn 0.007488 0.997881 0.064626
vn 0.021753 0.981975 0.187752
vn 0.021753 0.981976 0.187752
vn 0.000000 1.000000 0.000000
vn 0.000000 1.000000 0.000000
vn 0.011262 0.997068 0.075682
vn 0.011400 0.996996 0.076610
vn -0.057507 0.997792 -0.033221
vn -0.091726 0.994374 -0.052988
vn -0.091726 0.994374 -0.052988
vn -0.063459 0.997311 -0.036659
vn 0.000000 1.000000 -0.000000
vn 0.000000 1.000000 0.000000
vn -0.080220 0.994978 -0.059860
vn -0.096034 0.993763 -0.056682
vn -0.145518 0.984993 -0.092810
vn -0.144226 0.985877 -0.085126
vn 0.000000 1.000000 -0.000000
vn -0.092862 0.989848 -0.107604
vn 0.027932 0.999455 -0.017594
vn -0.059259 0.974843 -0.214870
vn -0.010255 0.971794 -0.235610
vn -0.153773 0.975901 -0.154823
vn -0.151118 0.961016 -0.231542
vn -0.109425 0.992730 -0.050139
vn -0.059146 0.997881 -0.027101
vn -0.171831 0.981975 -0.078733
vn -0.171831 0.981975 -0.078733
vn 0.000000 1.000000 -0.000000
vn 0.000000 1.000000 -0.000000
vn -0.056425 0.997813 -0.034421
vn -0.054771 0.997940 -0.033412
vn -0.088227 0.994645 -0.053821
vn -0.088227 0.994645 -0.053821
vn 0.048972 0.998459 -0.026109
vn 0.088297 0.994981 -0.047076
vn 0.088297 0.994981 -0.047076
vn 0.059278 0.997741 -0.031605
vn 0.000000 1.000000 0.000000
vn 0.000000 1.000000 0.000000
vn 0.090952 0.994978 -0.041787
vn 0.095732 0.993763 -0.057193
vn 0.151139 0.984992 -0.083352
vn 0.143774 0.985876 -0.085895
vn 0.000000 1.000000 0.000000
vn 0.138924 0.989848 -0.030036
vn 0.002081 0.999455 0.032948
vn 0.217022 0.974844 0.050805
vn 0.211794 0.971790 0.103763
vn 0.209532 0.975902 -0.060919
vn 0.275615 0.961019 -0.021866
vn 0.096395 0.992730 -0.072084
vn 0.052104 0.997881 -0.038963
vn 0.151367 0.981975 -0.113192
vn 0.151367 0.981975 -0.113192
vn 0.000000 1.000000 0.000000
vn 0.000000 1.000000 0.000000
vn 0.057062 0.997678 -0.037180
vn 0.058620 0.997549 -0.038194
vn 0.081509 0.995257 -0.053108
vn 0.081509 0.995257 -0.053108
vn 0.000000 -1.000000 -0.000000
vn 0.008165 -0.998460 0.054867
vn 0.012306 -0.996499 0.082698
vn -0.010184 -0.997777 0.065858
vn -0.012009 -0.996907 0.077661
vn -0.008996 -0.998266 0.058173
vn -0.014345 -0.995585 0.092764
vn 0.000000 -1.000000 0.000000
vn 0.000000 -1.000000 0.000000
vn 0.001315 -0.993763 0.111505
vn -0.009600 -0.994978 0.099631
vn 0.001975 -0.985877 0.167461
vn -0.003926 -0.984993 0.172551
vn -0.043874 -0.989848 0.135193
vn 0.000000 -1.000000 0.000000
vn -0.153020 -0.974844 0.162064
vn -0.029526 -0.999455 -0.014765
vn -0.196154 -0.971796 0.130905
vn -0.052675 -0.975901 0.211761
vn -0.119656 -0.961016 0.249259
vn 0.000000 -1.000000 0.000000
vn 0.000000 -1.000000 0.000000
vn 0.000000 -1.000000 0.000000
vn 0.000000 -1.000000 0.000000
vn 0.000000 -1.000000 0.000000
vn 0.000000 -1.000000 0.000000
vn 0.000000 -1.000000 0.000000
vn 0.013853 -0.992730 0.119562
vn 0.021753 -0.981976 0.187750
vn 0.021753 -0.981976 0.187750
vn 0.007488 -0.997881 0.064626
vn 0.000000 -1.000000 0.000000
vn 0.000000 -1.000000 0.000000
vn 0.011262 -0.997068 0.075682
vn 0.011400 -0.996996 0.076610
vn -0.057507 -0.997792 -0.033221
vn -0.063459 -0.997311 -0.036659
vn -0.091726 -0.994374 -0.052988
vn -0.091726 -0.994374 -0.052988
vn 0.000000 -1.000000 0.000000
vn 0.000000 -1.000000 -0.000000
vn -0.096034 -0.993763 -0.056682
vn -0.080220 -0.994978 -0.059860
vn -0.144227 -0.985876 -0.085127
vn -0.145519 -0.984993 -0.092811
vn -0.092861 -0.989848 -0.107603
vn 0.000000 -1.000000 -0.000000
vn -0.059259 -0.974843 -0.214871
vn 0.027932 -0.999455 -0.017595
vn -0.010255 -0.971793 -0.235613
vn -0.153772 -0.975902 -0.154823
vn -0.151117 -0.961016 -0.231542
vn -0.109424 -0.992730 -0.050138
vn -0.171830 -0.981975 -0.078733
vn -0.171830 -0.981975 -0.078733
vn -0.059146 -0.997881 -0.027101
vn 0.000000 -1.000000 0.000000
vn 0.000000 -1.000000 0.000000
vn -0.056425 -0.997813 -0.034421
vn -0.054771 -0.997940 -0.033412
vn -0.088227 -0.994645 -0.053821
vn -0.088227 -0.994645 -0.053821
vn 0.048972 -0.998459 -0.026109
vn 0.059279 -0.997741 -0.031605
vn 0.088298 -0.994981 -0.047076
vn 0.088298 -0.994981 -0.047076
vn 0.000000 -1.000000 0.000000
vn 0.000000 -1.000000 0.000000
vn 0.095732 -0.993763 -0.057193
vn 0.090952 -0.994978 -0.041788
vn 0.143774 -0.985876 -0.085894
vn 0.151139 -0.984992 -0.083352
vn 0.138922 -0.989848 -0.030036
vn 0.000000 -1.000000 0.000000
vn 0.217026 -0.974843 0.050806
vn 0.002081 -0.999455 0.032947
vn 0.211800 -0.971789 0.103763
vn 0.209533 -0.975902 -0.060919
vn 0.275612 -0.961020 -0.021865
vn 0.096394 -0.992730 -0.072084
vn 0.151367 -0.981975 -0.113192
vn 0.151367 -0.981975 -0.113192
vn 0.052103 -0.997881 -0.038963
vn 0.000000 -1.000000 -0.000000
vn 0.000000 -1.000000 -0.000000
vn 0.057063 -0.997678 -0.037180
vn 0.058620 -0.997549 -0.038195
vn 0.081509 -0.995257 -0.053108
vn 0.081509 -0.995257 -0.053108
vn -0.850747 0.000000 0.525575
vn -0.959707 0.000000 0.281003
vn -0.959707 0.000000 0.281003
vn -0.850747 0.000000 0.525575
vn -0.996449 0.000000 0.084200
vn -0.996449 0.000000 0.084200
vn -0.077804 0.000000 0.996969
vn 0.119467 0.000000 0.992838
vn 0.119467 0.000000 0.992838
vn -0.077804 0.000000 0.996969
vn -0.002231 0.000000 -0.999998
vn 0.061896 0.000000 -0.998083
vn 0.061896 0.000000 -0.998083
vn -0.002231 0.000000 -0.999998
vn 0.300471 0.000000 -0.953791
vn 0.300471 0.000000 -0.953791
vn 0.399848 0.000000 -0.916582
vn 0.399848 0.000000 -0.916582
vn -0.307217 0.000000 0.951640
vn -0.307217 0.000000 0.951640
vn -0.619226 0.000000 0.785213
vn -0.619226 0.000000 0.785213
vn -0.718397 0.000000 0.695634
vn -0.718397 0.000000 0.695634
vn 0.277240 0.000000 0.960801
vn 0.277240 0.000000 0.960801
vn 0.877265 0.000000 -0.480006
vn 0.913907 0.000000 -0.405924
vn 0.913907 0.000000 -0.405924
vn 0.877265 0.000000 -0.480006
vn 0.972575 0.000000 -0.232588
vn 0.972575 0.000000 -0.232588
vn 0.985196 0.000000 0.171432
vn 0.985196 0.000000 0.171432
vn 0.877818 0.000000 0.478995
vn 0.877818 0.000000 0.478995
vn -0.049720 0.000000 -0.998763
vn 0.251094 0.000000 -0.967963
vn 0.251094 0.000000 -0.967963
vn -0.049720 0.000000 -0.998763
vn 0.444571 0.000000 -0.895744
vn 0.444571 0.000000 -0.895744
vn -0.812201 0.000000 -0.583377
vn -0.910938 0.000000 -0.412544
vn -0.910938 0.000000 -0.412544
vn -0.812201 0.000000 -0.583377
vn 0.856280 0.000000 0.516512
vn 0.821404 0.000000 0.570347
vn 0.821404 0.000000 0.570347
vn 0.856280 0.000000 0.516512
vn 0.659846 0.000000 0.751401
vn 0.659846 0.000000 0.751401
vn 0.576502 0.000000 0.817096
vn 0.576502 0.000000 0.817096
vn -0.654508 0.000000 -0.756055
vn -0.654508 0.000000 -0.756055
vn -0.350438 0.000000 -0.936586
vn -0.350438 0.000000 -0.936586
vn -0.222423 0.000000 -0.974950
vn -0.222423 0.000000 -0.974950
vn -0.965332 0.000000 -0.261026
vn -0.965332 0.000000 -0.261026
vn -0.044298 0.000000 0.999018
vn -0.126651 0.000000 0.991947
vn -0.126651 0.000000 0.991947
vn -0.044298 0.000000 0.999018
vn -0.305310 0.000000 0.952253
vn -0.305310 0.000000 0.952253
vn -0.635504 0.000000 0.772098
vn -0.635504 0.000000 0.772098
vn 0.711844 0.000000 0.702337
vn 0.711844 0.000000 0.702337
vn 0.573721 0.000000 0.819051
vn 0.573721 0.000000 0.819051
vn 0.900942 0.000000 -0.433939
vn 0.798200 0.000000 -0.602392
vn 0.798200 0.000000 -0.602392
vn 0.900942 0.000000 -0.433939
vn -0.863323 0.000000 0.504652
vn -0.893909 0.000000 0.448249
vn -0.893909 0.000000 0.448249
vn -0.863323 0.000000 0.504652
vn -0.975559 0.000000 0.219740
vn -0.975559 0.000000 0.219740
vn -0.993350 0.000000 0.115131
vn -0.993350 0.000000 0.115131
vn 0.977089 0.000000 -0.212829
vn 0.977089 0.000000 -0.212829
vn 0.990073 0.000000 0.140556
vn 0.990073 0.000000 0.140556
vn 0.962491 0.000000 0.271313
vn 0.962491 0.000000 0.271313
vn 0.691187 0.000000 -0.722676
vn 0.691187 0.000000 -0.722676
vn -0.855988 0.000000 -0.516995
vn -0.810345 0.000000 -0.585953
vn -0.810345 0.000000 -0.585953
vn -0.855988 0.000000 -0.516995
vn -0.689981 0.000000 -0.723828
vn -0.689981 0.000000 -0.723828
vn -0.329864 0.000000 -0.944028
vn -0.329864 0.000000 -0.944028
s 1
g polySurface258
usemtl blinn5SG
f 64/1/1 65/2/2 66/3/3
s 2
f 67/4/4 65/2/5 68/5/6 69/6/7
f 67/4/4 69/6/7 70/7/8 71/8/9
f 71/8/9 70/7/8 72/9/10 73/10/11
f 73/10/11 72/9/10 74/11/12 75/12/13
f 72/9/10 70/7/8 76/13/14 77/14/15
f 77/14/15 76/13/14 78/15/16 79/16/17
f 79/16/17 78/15/16 80/17/18
f 74/11/12 72/9/10 77/14/15 81/18/19
f 81/18/19 77/14/15 79/16/17 82/19/20
f 82/19/20 79/16/17 80/17/18
f 83/20/21 68/5/6 65/2/5
s off
f 84/21/22 83/20/23 64/1/24
f 64/1/25 83/20/26 65/2/27
s 1
f 85/22/28 73/10/29 75/12/30 86/23/31
f 87/24/32 71/8/33 73/10/29 85/22/28
f 88/25/34 67/4/35 71/8/33 87/24/32
f 66/3/3 65/2/2 67/4/35 88/25/34
s 4
f 89/26/36 83/20/37 84/21/38 90/27/39
f 89/26/36 90/27/39 91/28/40 92/29/41
f 92/29/41 91/28/40 93/30/42 94/31/43
f 94/31/43 93/30/42 95/32/44 96/33/45
f 93/30/42 91/28/40 97/34/46 98/35/47
f 98/35/47 97/34/46 99/36/48 100/37/49
f 100/37/49 99/36/48 101/38/50
f 95/32/44 93/30/42 98/35/47 102/39/51
f 102/39/51 98/35/47 100/37/49 103/40/52
f 103/40/52 100/37/49 101/38/50
s 5
f 104/41/53 94/31/54 96/33/55 105/42/56
f 106/43/57 92/29/58 94/31/54 104/41/53
f 107/44/59 89/26/60 92/29/58 106/43/57
f 68/5/61 83/20/62 89/26/60 107/44/59
s 6
f 108/45/63 64/1/64 66/3/65 109/46/66
f 108/45/63 109/46/66 110/47/67 111/48/68
f 111/48/68 110/47/67 112/49/69 113/50/70
f 113/50/70 112/49/69 114/51/71 115/52/72
f 112/49/69 110/47/67 116/53/73 117/54/74
f 117/54/74 116/53/73 118/55/75 119/56/76
f 119/56/76 118/55/75 120/57/77
f 114/51/71 112/49/69 117/54/74 121/58/78
f 121/58/78 117/54/74 119/56/76 122/59/79
f 122/59/79 119/56/76 120/57/77
s 7
f 123/60/80 113/50/81 115/52/82 124/61/83
f 125/62/84 111/48/85 113/50/81 123/60/80
f 126/63/86 108/45/87 111/48/85 125/62/84
f 84/21/88 64/1/89 108/45/87 126/63/86
s 8
f 19/64/90 2/65/91 20/66/92
s 9
f 25/67/93 5/68/94 3/69/95 20/66/96
f 25/67/93 24/70/97 7/71/98 5/68/94
f 24/70/97 23/72/99 10/73/100 7/71/98
f 23/72/99 22/74/101 11/75/102 10/73/100
f 10/73/100 14/76/103 12/77/104 7/71/98
f 14/76/103 15/78/105 13/79/106 12/77/104
f 15/78/105 16/80/107 13/79/106
f 11/75/102 17/81/108 14/76/103 10/73/100
f 17/81/108 18/82/109 15/78/105 14/76/103
f 18/82/109 16/80/107 15/78/105
f 21/83/110 20/66/96 3/69/95
s off
f 1/84/111 19/64/112 21/83/113
f 19/64/114 20/66/115 21/83/116
s 8
f 8/85/117 9/86/118 22/74/119 23/72/120
f 6/87/121 8/85/117 23/72/120 24/70/122
f 4/88/123 6/87/121 24/70/122 25/67/124
f 2/65/91 4/88/123 25/67/124 20/66/92
s 11
f 26/89/125 27/90/126 1/84/127 21/83/128
f 26/89/125 29/91/129 28/92/130 27/90/126
f 29/91/129 31/93/131 30/94/132 28/92/130
f 31/93/131 33/95/133 32/96/134 30/94/132
f 30/94/132 35/97/135 34/98/136 28/92/130
f 35/97/135 37/99/137 36/100/138 34/98/136
f 37/99/137 38/101/139 36/100/138
f 32/96/134 39/102/140 35/97/135 30/94/132
f 39/102/140 40/103/141 37/99/137 35/97/135
f 40/103/141 38/101/139 37/99/137
s 12
f 41/104/142 42/105/143 33/95/144 31/93/145
f 43/106/146 41/104/142 31/93/145 29/91/147
f 44/107/148 43/106/146 29/91/147 26/89/149
f 3/69/150 44/107/148 26/89/149 21/83/151
s 13
f 45/108/152 46/109/153 2/65/154 19/64/155
f 45/108/152 48/110/156 47/111/157 46/109/153
f 48/110/156 50/112/158 49/113/159 47/111/157
f 50/112/158 52/114/160 51/115/161 49/113/159
f 49/113/159 54/116/162 53/117/163 47/111/157
f 54/116/162 56/118/164 55/119/165 53/117/163
f 56/118/164 57/120/166 55/119/165
f 51/115/161 58/121/167 54/116/162 49/113/159
f 58/121/167 59/122/168 56/118/164 54/116/162
f 59/122/168 57/120/166 56/118/164
s 14
f 60/123/169 61/124/170 52/114/171 50/112/172
f 62/125/173 60/123/169 50/112/172 48/110/174
f 63/126/175 62/125/173 48/110/174 45/108/176
f 1/84/177 63/126/175 45/108/176 19/64/178
s 15
f 3/69/179 5/68/180 69/6/181 68/5/182
f 5/68/180 7/71/183 70/7/184 69/6/181
s 16
f 11/75/185 22/74/186 75/12/187 74/11/188
s 17
f 7/71/189 12/77/190 76/13/191 70/7/192
f 12/77/190 13/79/193 78/15/194 76/13/191
f 13/79/193 16/80/195 80/17/196 78/15/194
s 16
f 17/81/197 11/75/185 74/11/188 81/18/198
f 18/82/199 17/81/197 81/18/198 82/19/200
f 16/80/201 18/82/199 82/19/200 80/17/202
f 22/74/186 9/86/203 86/23/204 75/12/187
s 18
f 9/86/205 8/85/206 85/22/207 86/23/208
f 8/85/206 6/87/209 87/24/210 85/22/207
f 6/87/209 4/88/211 88/25/212 87/24/210
f 4/88/211 2/65/213 66/3/214 88/25/212
s 19
f 1/84/215 27/90/216 90/27/217 84/21/218
f 27/90/216 28/92/219 91/28/220 90/27/217
s 20
f 32/96/221 33/95/222 96/33/223 95/32/224
s 21
f 28/92/225 34/98/226 97/34/227 91/28/228
f 34/98/226 36/100/229 99/36/230 97/34/227
f 36/100/229 38/101/231 101/38/232 99/36/230
s 20
f 39/102/233 32/96/221 95/32/224 102/39/234
f 40/103/235 39/102/233 102/39/234 103/40/236
f 38/101/237 40/103/235 103/40/236 101/38/238
f 33/95/222 42/105/239 105/42/240 96/33/223
s 15
f 42/105/241 41/104/242 104/41/243 105/42/244
f 41/104/242 43/106/245 106/43/246 104/41/243
f 43/106/245 44/107/247 107/44/248 106/43/246
f 44/107/247 3/69/179 68/5/182 107/44/248
s 18
f 2/65/213 46/109/249 109/46/250 66/3/214
f 46/109/249 47/111/251 110/47/252 109/46/250
s 23
f 51/115/253 52/114/254 115/52/255 114/51/256
s 24
f 47/111/257 53/117/258 116/53/259 110/47/260
f 53/117/258 55/119/261 118/55/262 116/53/259
f 55/119/261 57/120/263 120/57/264 118/55/262
s 23
f 58/121/265 51/115/253 114/51/256 121/58/266
f 59/122/267 58/121/265 121/58/266 122/59/268
f 57/120/269 59/122/267 122/59/268 120/57/270
f 52/114/254 61/124/271 124/61/272 115/52/255
s 19
f 61/124/273 60/123/274 123/60/275 124/61/276
f 60/123/274 62/125/277 125/62/278 123/60/275
f 62/125/277 63/126/279 126/63/280 125/62/278
f 63/126/279 1/84/215 84/21/218 126/63/280
